<svg width="200" height="66" viewBox="0 0 200 66" fill="none" xmlns="http://www.w3.org/2000/svg">
<g clip-path="url(#clip0_115_1143)">
<path d="M83.1899 45.04L98.6599 15.12C98.8472 14.5638 99.2094 14.083 99.6924 13.7496C100.175 13.4162 100.753 13.2479 101.34 13.27C101.696 13.2556 102.05 13.3156 102.382 13.4461C102.713 13.5766 103.013 13.7747 103.264 14.0279C103.514 14.281 103.709 14.5836 103.835 14.9163C103.962 15.249 104.018 15.6045 104 15.96V52.1C104.023 52.4668 103.971 52.8345 103.846 53.1802C103.721 53.5259 103.527 53.8423 103.274 54.1096C103.022 54.3769 102.717 54.5894 102.379 54.734C102.041 54.8786 101.677 54.9521 101.31 54.95C100.931 54.9671 100.553 54.905 100.199 54.7678C99.8459 54.6306 99.5248 54.4213 99.2567 54.1532C98.9886 53.885 98.7793 53.564 98.6421 53.2105C98.5049 52.857 98.4428 52.4788 98.4599 52.1V26.89L86.2199 50.42C85.9196 50.959 85.4862 51.4121 84.961 51.736C84.4358 52.0599 83.8363 52.2437 83.2199 52.27C82.5983 52.2663 81.9896 52.0918 81.4605 51.7655C80.9314 51.4393 80.5022 50.9738 80.2199 50.42L67.8999 26.89V52.1C67.9175 52.4832 67.8542 52.8659 67.714 53.223C67.5738 53.5801 67.3599 53.9037 67.0863 54.1726C66.8127 54.4415 66.4854 54.6497 66.1259 54.7837C65.7664 54.9176 65.3827 54.9743 64.9999 54.95C64.6327 54.9506 64.2694 54.8761 63.9321 54.7311C63.5949 54.586 63.2909 54.3734 63.0389 54.1064C62.7869 53.8394 62.5922 53.5237 62.4668 53.1786C62.3414 52.8336 62.288 52.4665 62.3099 52.1V16.1C62.2806 15.7407 62.3303 15.3793 62.4556 15.0412C62.5809 14.7032 62.7786 14.3966 63.035 14.1431C63.2913 13.8896 63.6001 13.6953 63.9395 13.5739C64.279 13.4524 64.6409 13.4067 64.9999 13.44C66.3499 13.44 66.9999 14.11 67.6899 15.29L83.1899 45.04ZM130.92 50.04C127.755 50.04 124.662 49.1016 122.031 47.3435C119.4 45.5854 117.349 43.0866 116.138 40.1629C114.927 37.2393 114.61 34.0223 115.227 30.9186C115.845 27.8149 117.369 24.9639 119.606 22.7263C121.844 20.4887 124.695 18.9648 127.798 18.3474C130.902 17.7301 134.119 18.0469 137.043 19.2579C139.966 20.4689 142.465 22.5197 144.223 25.1509C145.981 27.7821 146.92 30.8755 146.92 34.04C146.92 38.2835 145.234 42.3531 142.234 45.3537C139.233 48.3543 135.163 50.04 130.92 50.04ZM152.27 34.04C152.27 29.8174 151.018 25.6896 148.672 22.1786C146.326 18.6676 142.991 15.9311 139.09 14.3152C135.189 12.6992 130.896 12.2764 126.755 13.1002C122.613 13.924 118.809 15.9574 115.823 18.9433C112.837 21.9291 110.804 25.7333 109.98 29.8748C109.156 34.0163 109.579 38.3091 111.195 42.2103C112.811 46.1115 115.547 49.4459 119.058 51.7919C122.569 54.1378 126.697 55.39 130.92 55.39C136.58 55.3821 142.006 53.1301 146.008 49.128C150.01 45.1258 152.262 39.6999 152.27 34.04ZM178.66 50.04C175.495 50.04 172.402 49.1016 169.771 47.3435C167.14 45.5854 165.089 43.0866 163.878 40.1629C162.667 37.2393 162.35 34.0223 162.967 30.9186C163.585 27.8149 165.109 24.9639 167.346 22.7263C169.584 20.4887 172.435 18.9648 175.538 18.3474C178.642 17.7301 181.859 18.0469 184.783 19.2579C187.706 20.4689 190.205 22.5197 191.963 25.1509C193.721 27.7821 194.66 30.8755 194.66 34.04C194.66 38.2835 192.974 42.3531 189.974 45.3537C186.973 48.3543 182.903 50.04 178.66 50.04ZM200 34.04C200 29.8169 198.747 25.6887 196.401 22.1775C194.055 18.6663 190.72 15.9299 186.818 14.3142C182.916 12.6986 178.623 12.2764 174.481 13.101C170.339 13.9256 166.535 15.96 163.55 18.9468C160.564 21.9337 158.532 25.7388 157.709 29.881C156.886 34.0231 157.31 38.3162 158.928 42.2172C160.545 46.1182 163.283 49.452 166.796 51.7967C170.308 54.1415 174.437 55.392 178.66 55.39C184.307 55.3821 189.721 53.1395 193.72 49.1521C197.718 45.1648 199.976 39.7569 200 34.11M21.8499 59.83C24.0187 59.8514 26.17 59.44 28.1779 58.6199C30.1858 57.7997 32.0099 56.5874 33.5436 55.0537C35.0772 53.52 36.2896 51.6959 37.1097 49.688C37.9298 47.6801 38.3413 45.5288 38.3199 43.36C38.2979 42.2335 38.191 41.1104 37.9999 40C37.3299 36.3 34.4699 29.91 29.5999 21.34C25.8999 14.79 22.7099 10.08 22.7099 10.08L21.8699 8.9L21.1999 9.9C21.1999 9.9 17.9999 14.77 14.2899 21.17C9.28987 29.74 6.38987 36.17 5.87987 39.83C5.68584 40.9401 5.57553 42.0633 5.54987 43.19C5.55275 46.8246 6.73144 50.3606 8.90987 53.27C10.3783 55.3255 12.3219 56.9955 14.575 58.1377C16.8281 59.2799 19.3239 59.8605 21.8499 59.83ZM21.8499 65.54C18.4937 65.5749 15.1766 64.8169 12.1687 63.3277C9.16076 61.8385 6.54691 59.6602 4.53987 56.97C1.55841 53.1895 -0.0432312 48.5045 -0.000128808 43.69C-0.0060468 42.2187 0.161782 40.7519 0.499871 39.32C1.33987 34.45 4.86987 26.55 11.2599 15.63C15.9999 7.56 19.8299 1.51 19.9999 1.51C20.3399 0.84 20.8399 0 21.8499 0C22.8599 0 23.3599 0.84 23.8499 1.51C23.8499 1.51 27.8499 7.56 32.5899 15.63C38.9999 26.55 42.5199 34.45 43.3599 39.32C43.7063 40.7506 43.8775 42.2181 43.8699 43.69C43.9082 48.5037 42.3071 53.1872 39.3299 56.97C37.2371 59.6087 34.582 61.7472 31.558 63.2298C28.5341 64.7123 25.2175 65.5016 21.8499 65.54Z" fill="#00945E"/>
</g>
<defs>
<clipPath id="clip0_115_1143">
<rect width="200" height="65.55" fill="white"/>
</clipPath>
</defs>
</svg>
