<svg width="200" height="105" viewBox="0 0 200 105" fill="none" xmlns="http://www.w3.org/2000/svg">
<g clip-path="url(#clip0_115_1084)">
<path d="M16.44 54.71H0V78.1H4.75V68.6H14.49V64.82H4.75V58.49H15.29L16.44 54.71Z" fill="#0957A2"/>
<path d="M40.1899 78.09H45.3699L36.1099 54.71H31.5499L22.1699 78.09H26.9199L28.6699 73.41H38.4499L40.1899 78.09ZM29.9999 69.81L33.3599 60.81H33.7599L37.1099 69.81H29.9999Z" fill="#0957A2"/>
<path d="M68.2096 68.29C69.6553 67.9348 70.9345 67.0928 71.8324 65.9054C72.7302 64.718 73.1918 63.2577 73.1396 61.77C73.1396 56.29 67.5396 54.71 65.8896 54.71H55.8896V78.09H60.7596V69.09H62.9996L69.3297 78.09H75.1796L68.2096 68.29ZM64.9996 65.55H60.7796V58.42H65.0996C65.9882 58.5132 66.8099 58.9353 67.4031 59.6034C67.9963 60.2715 68.3183 61.1373 68.3058 62.0307C68.2933 62.924 67.9471 63.7805 67.3354 64.4316C66.7236 65.0828 65.8905 65.4817 64.9996 65.55Z" fill="#0957A2"/>
<path d="M165.89 68.29C167.336 67.9348 168.615 67.0928 169.513 65.9054C170.411 64.718 170.872 63.2577 170.82 61.77C170.82 56.29 165.22 54.71 163.58 54.71H153.58V78.09H158.45V69.09H160.7L167.04 78.09H172.88L165.89 68.29ZM162.72 65.55H158.46V58.42H162.78C163.669 58.5088 164.492 58.9265 165.089 59.5912C165.685 60.2558 166.011 61.1194 166.004 62.0124C165.996 62.9054 165.655 63.7633 165.048 64.4179C164.44 65.0724 163.61 65.4762 162.72 65.55Z" fill="#0957A2"/>
<path d="M85.9902 78.1H90.6202L91.4102 63.18L98.1702 78.1H100.42L107.06 63.18L107.85 78.1H112.72L110.84 54.71H106.27L99.3602 70.18L92.5102 54.71H87.6302L85.9902 78.1Z" fill="#0957A2"/>
<path d="M196.54 50.46H197.14L197.24 48.52L198.12 50.46H198.41L199.27 48.52L199.37 50.46H200L199.76 47.43H199.16L198.27 49.43L197.38 47.43H196.75L196.54 50.46Z" fill="#0957A2"/>
<path d="M141.1 54.71H125.27V78.1H141.1V74.08H130.14V67.87H139.7V64.09H130.14V58.43H139.88L141.1 54.71Z" fill="#0957A2"/>
<path d="M198 59.95V55.5C198 55.5 196 54.28 191.85 54.28C187.7 54.28 183.27 55.99 183.27 61.28C183.27 66.57 189.27 68.04 191.61 68.64C193.95 69.24 196.24 71.02 194.72 73.15C193.2 75.28 188.08 75.4 184.3 72.3L182.11 75.83C184.662 77.7601 187.803 78.7493 191 78.63C196.79 78.63 199.83 75.47 199.83 71.26C199.83 67.05 197.27 65.42 191.73 63.77C186.19 62.12 187.47 57.87 191.67 58.11C193.908 58.1395 196.096 58.7754 198 59.95Z" fill="#0957A2"/>
<path d="M195.88 48.1V47.52C195.632 47.3997 195.356 47.3447 195.08 47.36C194.54 47.36 193.97 47.58 193.97 48.27C193.97 48.96 194.75 49.15 195.05 49.27C195.35 49.39 195.65 49.57 195.45 49.85C195.25 50.13 194.59 50.14 194.1 49.74L193.82 50.2C194.151 50.4493 194.557 50.5765 194.97 50.56C195.72 50.56 196.11 50.15 196.11 49.56C196.11 48.97 195.78 48.81 195.11 48.56C194.44 48.31 194.55 47.8 195.11 47.83C195.386 47.8515 195.651 47.9446 195.88 48.1Z" fill="#0957A2"/>
<path d="M115.91 103.92H118.71L113.71 91.24H111.23L106.15 103.92H108.72L109.72 101.38H115L115.91 103.92ZM110.38 99.43L112.21 94.54H112.42L114.24 99.43H110.38Z" fill="#EA3550"/>
<path d="M98.3897 98.6C99.1743 98.4096 99.8692 97.9545 100.357 97.3115C100.846 96.6685 101.097 95.8769 101.07 95.07C101.07 92.07 98.0697 91.24 97.1297 91.24H91.7197V103.92H94.3597V99.03H95.5797L98.9997 103.92H102.17L98.3897 98.6ZM96.6697 97.12H94.3597V93.25H96.7097C97.1969 93.2859 97.6512 93.509 97.9775 93.8725C98.3037 94.2361 98.4766 94.7118 98.4597 95.2C98.4585 95.6868 98.2733 96.1551 97.9414 96.5112C97.6095 96.8672 97.1552 97.0847 96.6697 97.12Z" fill="#EA3550"/>
<path d="M166.56 91.24H157.97V103.92H166.56V101.75H160.61V98.38H165.8V96.33H160.61V93.25H165.9L166.56 91.24Z" fill="#EA3550"/>
<path d="M67.7999 94.08V91.67C66.7606 91.1694 65.6119 90.939 64.4599 91C62.2099 91 59.7999 91.93 59.7999 94.8C59.7999 97.67 63.0699 98.47 64.3299 98.8C65.5899 99.13 66.8399 100.09 66.0099 101.25C65.1799 102.41 62.4099 102.47 60.3599 100.78L59.1699 102.7C60.5592 103.741 62.2652 104.271 63.9999 104.2C67.1299 104.2 68.7899 102.48 68.7899 100.2C68.7899 97.92 67.3999 97.03 64.3899 96.14C61.3799 95.25 62.0799 92.93 64.3899 93.07C65.5964 93.0958 66.774 93.4446 67.7999 94.08Z" fill="#EA3550"/>
<path d="M35.81 91.24H33.25V103.93H35.81V91.24Z" fill="#EA3550"/>
<path d="M50.9696 91.24V99.63L44.9696 91.24H42.5996V103.92H44.9696V95.45L50.9696 103.92H53.3496V91.24H50.9696Z" fill="#EA3550"/>
<path d="M132.3 91.24V99.63L126.31 91.24H123.93V103.92H126.31V95.45L132.3 103.92H134.68V91.24H132.3Z" fill="#EA3550"/>
<path d="M142.86 42.84C142.86 31.4781 138.346 20.5816 130.312 12.5475C122.278 4.51349 111.382 0 100.02 0C88.6578 0 77.7613 4.51349 69.7272 12.5475C61.6932 20.5816 57.1797 31.4781 57.1797 42.84H142.86Z" fill="#0957A2"/>
<path d="M74.8096 91.2V100.56C74.8096 100.56 74.9696 104.36 79.9596 104.36C84.9496 104.36 85.1396 100.56 85.1396 100.56V91.2H82.6096V100.07C82.6096 100.07 82.9396 102.2 79.9996 102.2C79.348 102.283 78.69 102.106 78.1679 101.707C77.6458 101.308 77.3016 100.72 77.2096 100.07V91.2H74.8096Z" fill="#EA3550"/>
<path d="M120.12 36.53C125.939 31.1846 130.803 24.8839 134.5 17.9C134.5 17.9 119.3 21.46 112.91 25.57C112.91 25.57 114.37 21.18 113.64 2.09C113.64 2.09 104.64 12.14 100.03 20.54C95.3697 12.14 86.4197 2.09 86.4197 2.09C85.6897 21.18 87.1497 25.57 87.1497 25.57C80.7497 21.46 65.5597 17.9 65.5597 17.9C69.2511 24.8848 74.1114 31.1858 79.9297 36.53C67.9997 37.54 57.1797 43.2 57.1797 43.2H142.87C142.87 43.2 132.09 37.54 120.12 36.53Z" fill="#CCDEEF"/>
<path d="M151.14 94.13V91.66C149.992 91.1953 148.768 90.9477 147.53 90.93C145.53 90.93 140.68 91.99 140.68 97.58C140.68 103.17 144.38 104.4 147.16 104.4C148.775 104.423 150.362 103.978 151.73 103.12L150.73 101.12C149.762 101.822 148.584 102.174 147.39 102.12C145.2 102.12 143.33 100.62 143.33 97.58C143.305 97.0087 143.397 96.4384 143.599 95.9036C143.802 95.3687 144.11 94.8805 144.507 94.4683C144.903 94.0561 145.379 93.7285 145.905 93.5054C146.432 93.2822 146.998 93.1681 147.57 93.17C148.817 93.2137 150.038 93.5421 151.14 94.13Z" fill="#EA3550"/>
<path d="M115.74 31.41C117.841 25.9693 119.431 20.3451 120.49 14.61C115.428 17.3373 110.584 20.4498 106 23.92C106 23.92 102.72 12.92 99.88 7.92C97.05 12.92 93.76 23.92 93.76 23.92C89.1544 20.4452 84.2865 17.3326 79.2 14.61C80.2754 20.3468 81.8823 25.971 84 31.41C78.1455 31.1709 72.2814 31.3849 66.46 32.05C71.3 37.35 79.8 43.05 79.8 43.2H119.99C119.99 43.02 128.49 37.35 133.33 32.05C127.492 31.3823 121.611 31.1683 115.74 31.41Z" fill="white"/>
<path d="M86.4199 24.11H99.8399V48.04C99.8399 48.04 86.4199 43.02 86.4199 24.11Z" fill="#EA3550"/>
<path d="M113.46 24.11H100V48.04C100 48.04 113.46 43.02 113.46 24.11Z" fill="#C8344D"/>
</g>
<defs>
<clipPath id="clip0_115_1084">
<rect width="200" height="104.41" fill="white"/>
</clipPath>
</defs>
</svg>
