<svg width="274" height="80" viewBox="0 0 274 80" fill="none" xmlns="http://www.w3.org/2000/svg">
<g clip-path="url(#clip0_115_1110)">
<path d="M87.1592 26.7623C87.1592 26.6651 87.1924 26.5718 87.2515 26.5031C87.3106 26.4343 87.3907 26.3957 87.4743 26.3957H94.0503C94.1339 26.3957 94.214 26.4343 94.2731 26.5031C94.3322 26.5718 94.3654 26.6651 94.3654 26.7623V28.8344C94.3584 28.9246 94.3217 29.0082 94.263 29.0676C94.2042 29.127 94.128 29.1577 94.0503 29.1532H89.6663V31.7992H93.2694C93.3119 31.7991 93.3541 31.8091 93.3932 31.8285C93.4324 31.8479 93.4677 31.8764 93.4972 31.9121C93.5266 31.9479 93.5495 31.9902 93.5645 32.0365C93.5796 32.0828 93.5863 32.1322 93.5845 32.1817V34.1901C93.5863 34.2395 93.5796 34.2889 93.5645 34.3353C93.5495 34.3816 93.5266 34.4239 93.4972 34.4597C93.4677 34.4954 93.4324 34.5239 93.3932 34.5433C93.3541 34.5627 93.3119 34.5727 93.2694 34.5726H89.6663V39.0357C89.6663 39.0838 89.6581 39.1315 89.6423 39.176C89.6265 39.2204 89.6033 39.2609 89.574 39.2949C89.5447 39.3289 89.51 39.3559 89.4718 39.3744C89.4335 39.3928 89.3926 39.4023 89.3512 39.4023H87.4743C87.3907 39.4023 87.3106 39.3636 87.2515 39.2949C87.1924 39.2261 87.1592 39.1329 87.1592 39.0357V26.7623Z" fill="#00315D"/>
<path d="M97.4209 26.7623C97.4209 26.7128 97.4294 26.6638 97.4461 26.6182C97.4628 26.5727 97.4873 26.5315 97.518 26.4973C97.5487 26.463 97.5851 26.4364 97.6249 26.4189C97.6647 26.4014 97.7072 26.3935 97.7497 26.3957H99.6677C99.7513 26.3957 99.8314 26.4343 99.8905 26.5031C99.9496 26.5718 99.9828 26.6651 99.9828 26.7623V38.9878C99.9828 39.0851 99.9496 39.1783 99.8905 39.2471C99.8314 39.3158 99.7513 39.3545 99.6677 39.3545H97.7497C97.6667 39.3476 97.5884 39.3072 97.5284 39.2403C97.4683 39.1733 97.4303 39.084 97.4209 38.9878V26.7623Z" fill="#00315D"/>
<path d="M103.996 26.5551C103.994 26.5126 104 26.4701 104.013 26.4304C104.026 26.3907 104.046 26.3546 104.072 26.3246C104.098 26.2945 104.129 26.2711 104.163 26.2559C104.197 26.2407 104.234 26.234 104.27 26.2363H104.681L110.97 33.2975V26.7623C110.97 26.7128 110.978 26.6638 110.995 26.6182C111.012 26.5727 111.036 26.5315 111.067 26.4973C111.098 26.463 111.134 26.4363 111.174 26.4189C111.214 26.4014 111.256 26.3935 111.299 26.3957H113.217C113.298 26.403 113.375 26.444 113.432 26.5112C113.49 26.5785 113.525 26.6675 113.532 26.7623V39.1951C113.532 39.2413 113.524 39.287 113.508 39.3292C113.491 39.3714 113.467 39.4089 113.437 39.4392C113.408 39.4696 113.372 39.4919 113.334 39.5048C113.296 39.5177 113.256 39.5208 113.217 39.5138H112.943C112.943 39.5138 112.751 39.5138 112.751 39.4023L106.558 32.0223V38.94C106.558 39.0373 106.525 39.1305 106.466 39.1993C106.407 39.268 106.327 39.3066 106.243 39.3066H104.366C104.285 39.2993 104.208 39.2583 104.151 39.1911C104.093 39.1239 104.058 39.0348 104.051 38.94L103.996 26.5551Z" fill="#00315D"/>
<path d="M116.189 38.8763L121.162 26.4435C121.227 26.3359 121.326 26.2617 121.436 26.2363H121.573C121.631 26.2384 121.687 26.2588 121.735 26.2954C121.784 26.3319 121.822 26.3831 121.847 26.4435L126.82 38.8763C126.847 38.9279 126.86 38.9872 126.859 39.0472C126.857 39.1073 126.841 39.1657 126.813 39.2156C126.784 39.2656 126.744 39.3051 126.697 39.3297C126.65 39.3543 126.598 39.3628 126.546 39.3545H124.779C124.505 39.3545 124.368 39.2429 124.231 38.8763L123.628 37.4417H119.299L118.696 38.9241C118.647 39.0565 118.564 39.1684 118.459 39.2452C118.354 39.322 118.231 39.36 118.107 39.3545H116.367C116.23 39.3545 116.093 39.1472 116.189 38.8763ZM122.724 34.9392L121.532 31.8629L120.34 34.9392H122.724Z" fill="#00315D"/>
<path d="M129.424 26.5551C129.424 26.3479 129.561 26.2363 129.753 26.2363H130.15L136.493 33.2975V26.7623C136.493 26.6651 136.526 26.5718 136.585 26.5031C136.644 26.4343 136.725 26.3957 136.808 26.3957H138.726C138.769 26.3935 138.811 26.4014 138.851 26.4189C138.891 26.4363 138.927 26.463 138.958 26.4973C138.989 26.5315 139.013 26.5727 139.03 26.6182C139.046 26.6638 139.055 26.7128 139.055 26.7623V39.1951C139.055 39.4023 138.918 39.5139 138.726 39.5139H138.507C138.421 39.5082 138.339 39.4689 138.274 39.4023L132.027 32.0223V38.94C132.027 39.0373 131.994 39.1305 131.935 39.1993C131.875 39.268 131.795 39.3066 131.712 39.3066H129.835C129.751 39.3066 129.671 39.268 129.612 39.1993C129.553 39.1305 129.52 39.0373 129.52 38.94L129.424 26.5551Z" fill="#00315D"/>
<path d="M147.96 26.2363C149.381 26.2048 150.756 26.8163 151.796 27.9418C151.828 27.9747 151.854 28.0152 151.872 28.0605C151.889 28.1059 151.898 28.1551 151.898 28.2048C151.898 28.2546 151.889 28.3038 151.872 28.3491C151.854 28.3944 151.828 28.4349 151.796 28.4678L150.563 29.9502C150.505 30.0045 150.432 30.0341 150.358 30.0341C150.283 30.0341 150.211 30.0045 150.152 29.9502C149.555 29.3567 148.8 29.0192 148.015 28.9938C147.598 29.0042 147.186 29.1101 146.804 29.3056C146.422 29.5011 146.076 29.7822 145.787 30.133C145.499 30.4838 145.272 30.8974 145.121 31.3501C144.969 31.8028 144.896 32.2858 144.905 32.7715C144.892 33.2522 144.961 33.7311 145.108 34.1806C145.255 34.6302 145.477 35.0416 145.761 35.3912C146.044 35.7407 146.385 36.0216 146.762 36.2176C147.14 36.4135 147.547 36.5208 147.96 36.5332C148.739 36.5233 149.491 36.2089 150.097 35.6406C150.156 35.5862 150.228 35.5566 150.303 35.5566C150.378 35.5566 150.45 35.5862 150.508 35.6406L151.741 37.2345C151.769 37.2657 151.79 37.3029 151.805 37.3439C151.82 37.385 151.828 37.4291 151.828 37.4736C151.828 37.5181 151.82 37.5622 151.805 37.6033C151.79 37.6443 151.769 37.6815 151.741 37.7127C150.716 38.8789 149.339 39.5312 147.905 39.5298C147.152 39.5382 146.404 39.3723 145.706 39.0417C145.009 38.7111 144.374 38.2223 143.84 37.6038C143.306 36.9853 142.883 36.2495 142.595 35.4391C142.308 34.6286 142.161 33.7598 142.165 32.883C142.17 32.0039 142.325 31.1346 142.619 30.3248C142.913 29.5149 143.341 28.7804 143.879 28.1632C144.418 27.546 145.055 27.0582 145.755 26.7276C146.455 26.3969 147.205 26.23 147.96 26.2363Z" fill="#00315D"/>
<path d="M155.084 26.7623C155.084 26.7128 155.093 26.6638 155.109 26.6182C155.126 26.5727 155.15 26.5315 155.181 26.4973C155.212 26.463 155.248 26.4364 155.288 26.4189C155.328 26.4014 155.37 26.3935 155.413 26.3957H161.975C162.018 26.3935 162.06 26.4014 162.1 26.4189C162.14 26.4364 162.176 26.463 162.207 26.4973C162.238 26.5315 162.262 26.5727 162.279 26.6182C162.295 26.6638 162.304 26.7128 162.304 26.7623V28.8344C162.294 28.926 162.254 29.0096 162.193 29.0687C162.132 29.1278 162.054 29.158 161.975 29.1532H157.55V31.3847H161.153C161.237 31.3847 161.317 31.4234 161.376 31.4921C161.435 31.5609 161.468 31.6541 161.468 31.7514V33.7757C161.468 33.8729 161.435 33.9661 161.376 34.0349C161.317 34.1036 161.237 34.1423 161.153 34.1423H157.55V36.6448H161.92C162 36.64 162.077 36.6701 162.138 36.7292C162.199 36.7883 162.239 36.872 162.249 36.9635V38.9878C162.249 39.0374 162.241 39.0864 162.224 39.1319C162.207 39.1775 162.183 39.2186 162.152 39.2529C162.121 39.2871 162.085 39.3138 162.045 39.3313C162.005 39.3487 161.963 39.3566 161.92 39.3545H155.358C155.316 39.3566 155.273 39.3487 155.233 39.3313C155.193 39.3138 155.157 39.2871 155.126 39.2529C155.096 39.2186 155.071 39.1775 155.055 39.1319C155.038 39.0864 155.029 39.0374 155.029 38.9878L155.084 26.7623Z" fill="#00315D"/>
<path d="M194.992 38.8763L200.02 26.4435C200.05 26.3876 200.09 26.3401 200.137 26.3043C200.185 26.2684 200.238 26.2452 200.294 26.2363H200.431C200.487 26.2452 200.541 26.2684 200.588 26.3043C200.635 26.3401 200.675 26.3876 200.705 26.4435L205.678 38.8763C205.705 38.9279 205.718 38.9872 205.716 39.0472C205.715 39.1073 205.699 39.1657 205.67 39.2156C205.642 39.2656 205.602 39.3051 205.555 39.3297C205.507 39.3543 205.455 39.3628 205.404 39.3545H203.623C203.349 39.3545 203.212 39.2429 203.075 38.8763L202.527 37.4417H198.198L197.595 38.9241C197.551 39.0514 197.476 39.1604 197.378 39.2371C197.28 39.3139 197.165 39.3547 197.047 39.3545H195.321C195.047 39.3545 194.951 39.1472 195.047 38.8763M201.568 34.9392L200.39 31.8629L199.198 34.9392H201.568Z" fill="#00315D"/>
<path d="M209.322 26.5551C209.328 26.473 209.359 26.396 209.409 26.3377C209.459 26.2794 209.525 26.2435 209.596 26.2363H209.829C209.883 26.232 209.936 26.2444 209.985 26.2725C210.033 26.3005 210.074 26.3431 210.103 26.3957L213.802 34.3654L217.501 26.3957C217.53 26.3431 217.571 26.3005 217.619 26.2725C217.667 26.2444 217.721 26.232 217.775 26.2363H218.049C218.119 26.2435 218.186 26.2794 218.236 26.3377C218.286 26.396 218.317 26.473 218.323 26.5551L220.104 38.9878C220.11 39.0398 220.106 39.0927 220.093 39.1429C220.08 39.193 220.057 39.2393 220.027 39.2786C219.998 39.3179 219.961 39.3492 219.92 39.3706C219.878 39.3919 219.834 39.4027 219.789 39.4023H217.912C217.838 39.3902 217.77 39.3537 217.714 39.2971C217.658 39.2406 217.617 39.1664 217.597 39.0835L216.857 33.409L214.213 39.4023C214.183 39.4597 214.143 39.5093 214.096 39.5477C214.049 39.5862 213.995 39.6127 213.939 39.6254H213.72C213.662 39.6172 213.606 39.5925 213.559 39.5536C213.511 39.5147 213.472 39.4627 213.446 39.4023L210.706 33.409L210.021 39.0835C210.014 39.1656 209.984 39.2426 209.933 39.3009C209.883 39.3592 209.817 39.3951 209.747 39.4023H207.87C207.826 39.4047 207.782 39.3946 207.742 39.373C207.702 39.3514 207.667 39.3189 207.64 39.2782C207.613 39.2375 207.595 39.1899 207.587 39.1393C207.58 39.0888 207.582 39.0368 207.596 38.9878L209.322 26.5551Z" fill="#00315D"/>
<path d="M223.53 26.7623C223.526 26.6719 223.552 26.5832 223.603 26.5149C223.654 26.4465 223.726 26.4038 223.804 26.3957H230.366C230.408 26.3935 230.451 26.4014 230.491 26.4189C230.531 26.4364 230.567 26.463 230.598 26.4973C230.628 26.5315 230.653 26.5727 230.67 26.6182C230.686 26.6638 230.695 26.7128 230.695 26.7623V28.8344C230.685 28.926 230.645 29.0096 230.584 29.0687C230.523 29.1278 230.445 29.158 230.366 29.1532H226.05V31.3847H229.695C229.772 31.3929 229.844 31.4356 229.895 31.5039C229.946 31.5722 229.973 31.6609 229.969 31.7514V33.7757C229.973 33.8661 229.946 33.9548 229.895 34.0231C229.844 34.0914 229.772 34.1341 229.695 34.1423H226.05V36.6448H230.421C230.5 36.64 230.578 36.6701 230.639 36.7292C230.7 36.7883 230.739 36.872 230.75 36.9635V38.9878C230.75 39.0374 230.741 39.0864 230.724 39.1319C230.708 39.1775 230.683 39.2186 230.652 39.2529C230.622 39.2871 230.585 39.3138 230.546 39.3313C230.506 39.3487 230.463 39.3566 230.421 39.3545H223.858C223.667 39.3545 223.584 39.1951 223.584 38.9878L223.53 26.7623Z" fill="#00315D"/>
<path d="M234.16 26.7623C234.16 26.6651 234.193 26.5718 234.253 26.5031C234.312 26.4343 234.392 26.3957 234.475 26.3957H239.229C240.04 26.3811 240.828 26.7039 241.451 27.3059C242.075 27.9079 242.493 28.7495 242.63 29.6787C242.768 30.608 242.615 31.5637 242.2 32.3734C241.785 33.1831 241.134 33.7935 240.366 34.0944L242.558 38.8763C242.591 38.9295 242.61 38.9928 242.612 39.0582C242.614 39.1236 242.599 39.1883 242.57 39.2443C242.541 39.3002 242.498 39.345 242.448 39.3731C242.397 39.4012 242.34 39.4113 242.284 39.4023H240.092C239.988 39.3892 239.89 39.3326 239.818 39.2429L237.722 34.3495H236.626V39.1313C236.626 39.2285 236.593 39.3218 236.534 39.3905C236.475 39.4593 236.395 39.4979 236.311 39.4979H234.434C234.351 39.4979 234.271 39.4593 234.211 39.3905C234.152 39.3218 234.119 39.2285 234.119 39.1313V26.7623H234.16ZM238.996 32.0223C239.322 31.9978 239.628 31.8287 239.849 31.5499C240.071 31.2711 240.192 30.9039 240.188 30.524C240.188 30.3427 240.157 30.1631 240.097 29.9957C240.037 29.8284 239.949 29.6765 239.838 29.549C239.727 29.4215 239.596 29.3209 239.451 29.253C239.307 29.185 239.152 29.1511 238.996 29.1532H236.667V32.0223H238.996Z" fill="#00315D"/>
<path d="M246.12 26.7623C246.12 26.6651 246.153 26.5718 246.212 26.5031C246.272 26.4343 246.352 26.3957 246.435 26.3957H248.353C248.396 26.3935 248.438 26.4014 248.478 26.4189C248.518 26.4364 248.554 26.463 248.585 26.4973C248.616 26.5315 248.64 26.5727 248.657 26.6182C248.673 26.6638 248.682 26.7128 248.682 26.7623V38.9878C248.682 39.0374 248.673 39.0864 248.657 39.1319C248.64 39.1775 248.616 39.2186 248.585 39.2529C248.554 39.2871 248.518 39.3138 248.478 39.3313C248.438 39.3487 248.396 39.3566 248.353 39.3545H246.435C246.354 39.3471 246.277 39.3062 246.219 39.2389C246.162 39.1717 246.126 39.0826 246.12 38.9878V26.7623Z" fill="#00315D"/>
<path d="M257.629 26.2363C258.333 26.2131 259.035 26.3517 259.693 26.6444C260.351 26.9371 260.953 27.378 261.465 27.9418C261.52 28.0145 261.55 28.108 261.55 28.2048C261.55 28.3016 261.52 28.3951 261.465 28.4678L260.232 29.9502C260.174 30.0045 260.101 30.0341 260.026 30.0341C259.952 30.0341 259.879 30.0045 259.821 29.9502C259.223 29.3567 258.469 29.0192 257.684 28.9938C257.266 29.0042 256.855 29.1101 256.473 29.3056C256.09 29.5011 255.745 29.7822 255.456 30.133C255.167 30.4838 254.941 30.8974 254.789 31.3501C254.638 31.8028 254.565 32.2858 254.574 32.7715C254.561 33.2574 254.632 33.7415 254.782 34.1952C254.932 34.6489 255.159 35.0631 255.449 35.4135C255.738 35.764 256.085 36.0435 256.469 36.2358C256.853 36.428 257.266 36.5292 257.684 36.5332C258.462 36.5233 259.215 36.2089 259.821 35.6406C259.879 35.5862 259.952 35.5566 260.026 35.5566C260.101 35.5566 260.174 35.5862 260.232 35.6406L261.465 37.2345C261.512 37.3024 261.537 37.3867 261.537 37.4736C261.537 37.5605 261.512 37.6448 261.465 37.7127C260.43 38.8906 259.036 39.5438 257.588 39.5298C256.08 39.5298 254.634 38.8329 253.568 37.5923C252.501 36.3518 251.902 34.6693 251.902 32.9149C251.902 31.1606 252.501 29.478 253.568 28.2375C254.634 26.997 256.08 26.3001 257.588 26.3001" fill="#00315D"/>
<path d="M263.286 38.8763L268.26 26.4435C268.286 26.3842 268.325 26.3338 268.373 26.2975C268.421 26.2612 268.476 26.2401 268.534 26.2363H268.725C268.836 26.2617 268.934 26.3359 268.999 26.4435L274 38.8763C274.026 38.9279 274.039 38.9872 274.038 39.0472C274.037 39.1073 274.021 39.1657 273.992 39.2156C273.964 39.2656 273.923 39.3051 273.876 39.3297C273.829 39.3543 273.777 39.3628 273.726 39.3545H271.945C271.671 39.3545 271.534 39.2429 271.397 38.8763L270.849 37.4417H266.506L265.958 38.9241C265.908 39.0565 265.826 39.1684 265.721 39.2452C265.615 39.322 265.493 39.36 265.369 39.3545H263.629C263.314 39.3545 263.218 39.1472 263.314 38.8763M269.89 34.9392L268.698 31.8629L267.506 34.9392H269.89Z" fill="#00315D"/>
<path d="M172.524 33.6163C172.535 32.9577 172.696 32.3142 172.99 31.7513C173.299 31.0726 173.777 30.5174 174.36 30.1574C175.025 29.7108 175.784 29.4899 176.552 29.5198C177.389 29.4341 178.222 29.7379 178.867 30.3646C179.11 30.6389 179.302 30.969 179.429 31.334C179.556 31.699 179.617 32.0908 179.607 32.4846C179.609 33.0481 179.507 33.6056 179.309 34.1197C179.11 34.6338 178.82 35.0926 178.456 35.4652C177.665 36.3196 176.617 36.7776 175.538 36.7404C174.775 36.7681 174.024 36.5051 173.401 35.9912C173.106 35.7127 172.873 35.3562 172.72 34.9514C172.568 34.5465 172.5 34.1052 172.524 33.6641M174.634 34.5089C174.621 34.8968 174.696 35.282 174.853 35.6246C174.946 35.7452 175.06 35.8406 175.188 35.904C175.316 35.9674 175.454 35.9972 175.593 35.9912C176.182 35.9912 176.634 35.4652 176.963 34.3973C177.282 33.5726 177.468 32.6864 177.511 31.7832C177.534 31.3706 177.438 30.9609 177.237 30.6196C177.172 30.5072 177.084 30.4149 176.982 30.351C176.879 30.2871 176.764 30.2535 176.648 30.253C176.004 30.253 175.497 30.779 175.141 31.847C174.824 32.6669 174.638 33.5475 174.593 34.4451" fill="#00315D"/>
<path d="M183.799 30.5878L183.114 34.2538C182.864 35.9657 182.304 37.5959 181.47 39.0357C181.159 39.5401 180.747 39.9489 180.269 40.2266C179.792 40.5043 179.264 40.6426 178.73 40.6296C178.293 40.6749 177.856 40.5395 177.497 40.2471C177.376 40.1461 177.279 40.0115 177.214 39.8555C177.15 39.6996 177.12 39.5273 177.127 39.3545C177.122 39.2004 177.149 39.0472 177.206 38.9082C177.263 38.7692 177.349 38.6488 177.456 38.5575C177.586 38.4101 177.75 38.3083 177.928 38.2635C178.105 38.2188 178.29 38.2329 178.461 38.3043C178.633 38.3756 178.783 38.5014 178.896 38.6673C179.009 38.8332 179.079 39.0326 179.1 39.2429C179.1 39.5617 179.278 39.7689 179.456 39.7689C179.634 39.7689 179.867 39.5617 180.059 39.0835C180.354 38.1716 180.565 37.2259 180.689 36.2622L180.922 35.0986C181.003 34.8816 181.049 34.6494 181.059 34.4132L181.785 30.5878H180.84L181.059 29.6792H181.881C182.124 28.3076 182.661 27.0299 183.443 25.9653C183.724 25.6609 184.053 25.424 184.413 25.2681C184.773 25.1122 185.155 25.0404 185.539 25.0568C186.017 25.0378 186.49 25.17 186.909 25.4393C187.058 25.5434 187.182 25.6904 187.269 25.8663C187.355 26.0421 187.401 26.2409 187.402 26.4435C187.398 26.7138 187.322 26.9758 187.183 27.1927C187.101 27.2952 187.001 27.3765 186.89 27.4314C186.779 27.4863 186.659 27.5136 186.539 27.5115C186.169 27.5115 185.854 27.1927 185.58 26.6029C185.306 26.0132 185.169 25.9175 184.991 25.9175C184.813 25.9175 184.58 26.2841 184.443 27.0333L183.977 29.7908H184.95L184.717 30.6834H183.758L183.799 30.5878Z" fill="#00315D"/>
<path d="M117.463 50.1295C117.463 49.9701 117.655 49.8745 117.737 49.8745H117.97C118.024 49.8701 118.078 49.8826 118.126 49.9106C118.174 49.9387 118.215 49.9812 118.244 50.0339L121.943 58.0036L125.642 50.0339C125.674 49.9844 125.716 49.9442 125.763 49.9165C125.811 49.8889 125.863 49.8745 125.916 49.8745H126.149C126.182 49.87 126.214 49.8732 126.246 49.8836C126.277 49.8941 126.306 49.9117 126.332 49.9354C126.357 49.9591 126.379 49.9885 126.394 50.0218C126.41 50.0551 126.42 50.0917 126.423 50.1295L128.204 62.5623C128.217 62.6121 128.22 62.6646 128.212 62.7158C128.204 62.767 128.186 62.8154 128.16 62.8571C128.133 62.8989 128.098 62.9329 128.059 62.9564C128.019 62.9799 127.975 62.9923 127.93 62.9926H126.04C125.972 62.9815 125.907 62.951 125.852 62.9036C125.797 62.8563 125.753 62.7938 125.724 62.7217L124.998 56.9835L122.341 62.9926C122.313 63.051 122.274 63.1005 122.226 63.1367C122.178 63.1729 122.123 63.1946 122.067 63.1998H121.793C121.737 63.1909 121.683 63.1677 121.636 63.1319C121.588 63.0961 121.548 63.0485 121.519 62.9926L118.779 56.9835L118.094 62.7217C118.094 62.8811 117.957 62.9926 117.778 62.9926H115.956C115.911 62.9908 115.866 62.978 115.825 62.9548C115.783 62.9317 115.747 62.8989 115.717 62.8584C115.688 62.8179 115.665 62.7706 115.652 62.7196C115.639 62.6686 115.636 62.6151 115.641 62.5623L117.463 50.1295Z" fill="#00315D"/>
<path d="M141.479 49.8267C142.611 49.8235 143.717 50.2111 144.659 50.9402C145.6 51.6693 146.334 52.7072 146.769 53.9224C147.203 55.1376 147.317 56.4754 147.097 57.7662C146.877 59.057 146.333 60.2428 145.533 61.1733C144.733 62.1039 143.714 62.7372 142.604 62.9932C141.495 63.2491 140.345 63.1162 139.301 62.6111C138.256 62.1061 137.364 61.2517 136.737 60.1562C136.111 59.0607 135.778 57.7734 135.78 56.4575C135.778 55.5861 135.925 54.7229 136.21 53.9175C136.496 53.112 136.916 52.3802 137.446 51.7641C137.975 51.1479 138.604 50.6596 139.296 50.3271C139.989 49.9946 140.731 49.8246 141.479 49.8267ZM141.479 60.1714C142.11 60.1777 142.729 59.9653 143.256 59.5614C143.782 59.1575 144.194 58.5803 144.438 57.9033C144.682 57.2263 144.747 56.4802 144.625 55.7599C144.504 55.0396 144.2 54.3778 143.754 53.8587C143.308 53.3396 142.739 52.9868 142.12 52.8451C141.501 52.7034 140.86 52.7794 140.278 53.0632C139.696 53.347 139.2 53.8259 138.853 54.4389C138.506 55.0519 138.323 55.7712 138.328 56.5053C138.339 57.4737 138.675 58.399 139.263 59.0839C139.852 59.7687 140.647 60.159 141.479 60.1714Z" fill="#00315D"/>
<path d="M155.413 50.3527C155.419 50.2561 155.454 50.165 155.511 50.0951C155.569 50.0253 155.646 49.981 155.728 49.9701H160.468C161.282 49.9553 162.074 50.2811 162.699 50.8882C163.324 51.4953 163.741 52.3434 163.874 53.278C164.006 54.2126 163.846 55.1716 163.423 55.9804C162.999 56.7892 162.339 57.3941 161.564 57.6848L163.756 62.4666C163.852 62.7376 163.756 63.0086 163.482 63.0086H161.386C161.249 63.0086 161.153 62.897 161.153 62.8492L159.057 57.9558H157.92V62.7376C157.92 62.7857 157.912 62.8334 157.896 62.8779C157.88 62.9224 157.857 62.9628 157.828 62.9968C157.799 63.0309 157.764 63.0579 157.726 63.0763C157.687 63.0947 157.646 63.1042 157.605 63.1042H155.728C155.687 63.1042 155.646 63.0947 155.608 63.0763C155.569 63.0579 155.535 63.0309 155.505 62.9968C155.476 62.9628 155.453 62.9224 155.437 62.8779C155.421 62.8334 155.413 62.7857 155.413 62.7376V50.3527ZM160.29 55.5489C160.612 55.5244 160.914 55.357 161.134 55.0812C161.353 54.8054 161.473 54.4422 161.468 54.0665C161.472 53.6957 161.351 53.3379 161.131 53.0698C160.911 52.8016 160.609 52.6445 160.29 52.632H157.961V55.5011H160.29V55.5489Z" fill="#00315D"/>
<path d="M173.812 52.7436H171.524C171.482 52.7436 171.44 52.7336 171.401 52.7142C171.361 52.6948 171.326 52.6664 171.297 52.6306C171.267 52.5949 171.244 52.5526 171.229 52.5062C171.214 52.4599 171.207 52.4105 171.209 52.361V50.3527C171.215 50.2561 171.25 50.165 171.307 50.0951C171.365 50.0253 171.442 49.981 171.524 49.9701H178.552C178.595 49.9701 178.637 49.9801 178.676 49.9995C178.715 50.0189 178.751 50.0473 178.78 50.0831C178.81 50.1188 178.833 50.1611 178.848 50.2075C178.863 50.2538 178.869 50.3032 178.868 50.3527V52.361C178.869 52.4105 178.863 52.4599 178.848 52.5062C178.833 52.5526 178.81 52.5949 178.78 52.6306C178.751 52.6664 178.715 52.6948 178.676 52.7142C178.637 52.7336 178.595 52.7436 178.552 52.7436H176.278V62.626C176.282 62.7165 176.256 62.8051 176.205 62.8735C176.154 62.9418 176.082 62.9845 176.004 62.9926H174.086C174.003 62.9858 173.925 62.9454 173.865 62.8785C173.805 62.8115 173.767 62.7222 173.757 62.626V52.7436H173.812Z" fill="#00315D"/>
<path d="M191.608 49.8267C193.036 49.8557 194.409 50.4711 195.485 51.5641C195.536 51.6419 195.564 51.7371 195.564 51.835C195.564 51.933 195.536 52.0282 195.485 52.106L194.252 53.6999C194.194 53.7543 194.121 53.7839 194.046 53.7839C193.972 53.7839 193.899 53.7543 193.841 53.6999C193.295 53.082 192.561 52.7385 191.8 52.7436C190.994 52.8052 190.24 53.2207 189.688 53.906C189.137 54.5912 188.83 55.4948 188.83 56.4336C188.83 57.3723 189.137 58.2759 189.688 58.9611C190.24 59.6464 190.994 60.0619 191.8 60.1235C192.267 60.1363 192.732 60.0443 193.17 59.8526V58.8006H192.074C191.996 58.805 191.92 58.7744 191.861 58.7149C191.802 58.6555 191.765 58.572 191.758 58.4818V56.6647C191.758 56.5674 191.792 56.4742 191.851 56.4054C191.91 56.3367 191.99 56.2981 192.074 56.2981H195.266C195.343 56.3062 195.415 56.3489 195.466 56.4172C195.517 56.4856 195.543 56.5742 195.54 56.6647V61.6697C195.541 61.7232 195.529 61.7759 195.504 61.8213C195.48 61.8667 195.445 61.9027 195.403 61.9247C194.211 62.7235 192.86 63.1465 191.484 63.152C190.733 63.1562 189.989 62.9872 189.294 62.6547C188.599 62.3221 187.968 61.8327 187.437 61.2147C186.906 60.5966 186.485 59.8622 186.199 59.0539C185.913 58.2455 185.768 57.3793 185.772 56.5053C185.782 54.7351 186.392 53.0413 187.47 51.791C188.547 50.5408 190.004 49.835 191.526 49.8267" fill="#00315D"/>
<path d="M202.76 62.4666L207.734 50.0339C207.763 49.978 207.803 49.9304 207.851 49.8946C207.898 49.8588 207.952 49.8356 208.008 49.8267H208.199C208.255 49.8356 208.309 49.8588 208.356 49.8946C208.404 49.9304 208.444 49.978 208.473 50.0339L213.446 62.4666C213.468 62.5189 213.477 62.5768 213.474 62.6345C213.47 62.6923 213.454 62.748 213.426 62.7962C213.398 62.8444 213.361 62.8834 213.316 62.9094C213.272 62.9355 213.222 62.9477 213.172 62.9448H211.391C211.117 62.9448 210.98 62.8332 210.843 62.4666L210.295 60.9683H205.911L205.363 62.4666C205.309 62.5935 205.225 62.6998 205.12 62.7731C205.016 62.8465 204.896 62.8839 204.774 62.8811H203.034C202.802 62.8811 202.665 62.7217 202.76 62.4666ZM209.295 58.5296L208.103 55.5011L206.912 58.5296H209.295Z" fill="#00315D"/>
<path d="M225.762 49.8267C227.19 49.8557 228.563 50.4711 229.639 51.5641C229.671 51.5984 229.697 51.6403 229.715 51.6869C229.733 51.7336 229.742 51.784 229.742 51.835C229.742 51.886 229.733 51.9365 229.715 51.9831C229.697 52.0298 229.671 52.0716 229.639 52.106L228.406 53.6999C228.348 53.7543 228.275 53.7839 228.201 53.7839C228.126 53.7839 228.053 53.7543 227.995 53.6999C227.419 53.1041 226.67 52.785 225.899 52.8073C225.06 52.8199 224.258 53.2167 223.668 53.9119C223.079 54.607 222.748 55.5445 222.748 56.5212C222.752 57.4922 223.085 58.4223 223.675 59.1089C224.265 59.7955 225.064 60.1831 225.899 60.1873C226.366 60.2012 226.832 60.1092 227.269 59.9163V58.8006H226.269C226.191 58.805 226.115 58.7744 226.056 58.7149C225.997 58.6555 225.961 58.572 225.954 58.4818V56.6647C225.954 56.5674 225.987 56.4742 226.046 56.4054C226.105 56.3367 226.185 56.2981 226.269 56.2981H229.461C229.653 56.2981 229.735 56.4575 229.735 56.6647V61.6697C229.733 61.7224 229.72 61.7736 229.696 61.8184C229.672 61.8631 229.638 61.8997 229.598 61.9247C228.401 62.7248 227.046 63.1478 225.666 63.152C224.147 63.152 222.691 62.4501 221.617 61.2006C220.543 59.9511 219.939 58.2564 219.939 56.4893C219.939 54.7223 220.543 53.0276 221.617 51.7781C222.691 50.5286 224.147 49.8267 225.666 49.8267" fill="#00315D"/>
<path d="M238.38 50.3527C238.38 50.1933 238.517 49.9701 238.654 49.9701H245.23C245.272 49.9701 245.315 49.9801 245.354 49.9995C245.393 50.0189 245.428 50.0473 245.458 50.0831C245.487 50.1188 245.51 50.1611 245.525 50.2075C245.54 50.2538 245.547 50.3032 245.545 50.3527V52.361C245.547 52.4105 245.54 52.4599 245.525 52.5062C245.51 52.5526 245.487 52.5949 245.458 52.6306C245.428 52.6664 245.393 52.6948 245.354 52.7142C245.315 52.7336 245.272 52.7436 245.23 52.7436H240.846V55.0229H244.504C244.574 55.0301 244.641 55.066 244.691 55.1243C244.741 55.1826 244.772 55.2596 244.778 55.3417V57.366C244.782 57.4565 244.755 57.5451 244.704 57.6135C244.653 57.6818 244.581 57.7245 244.504 57.7326H240.846V60.2351H245.23C245.308 60.2306 245.384 60.2613 245.443 60.3207C245.501 60.3801 245.538 60.4637 245.545 60.5539V62.5623C245.547 62.6117 245.54 62.6611 245.525 62.7075C245.51 62.7538 245.487 62.7961 245.458 62.8319C245.428 62.8676 245.393 62.896 245.354 62.9155C245.315 62.9349 245.272 62.9449 245.23 62.9448H238.654C238.476 62.9448 238.38 62.7854 238.38 62.5623V50.3527Z" fill="#00315D"/>
<path d="M267.67 55.6127C267.807 55.6127 267.903 55.6127 267.903 55.7721V56.7762C267.903 56.8878 267.766 56.9356 267.67 56.9356H259.231C259.094 56.9356 258.998 56.9356 258.998 56.7762V55.7721C258.998 55.7721 259.135 55.6127 259.231 55.6127H267.67Z" fill="#00315D"/>
<path d="M101.901 55.6127C102.038 55.6127 102.134 55.6127 102.134 55.7721V56.7762C102.134 56.8878 101.997 56.9356 101.901 56.9356H93.4477C93.3107 56.9356 93.2285 56.9356 93.2285 56.7762V55.7721C93.2285 55.7721 93.3655 55.6127 93.4477 55.6127H101.901Z" fill="#00315D"/>
<path d="M68.8014 79.4582C68.8054 79.5285 68.7965 79.599 68.7752 79.665C68.7539 79.7309 68.7207 79.7908 68.6779 79.8406C68.6351 79.8904 68.5836 79.929 68.527 79.9538C68.4703 79.9785 68.4097 79.9889 68.3493 79.9842H0.452071C0.391655 79.9889 0.331074 79.9785 0.27439 79.9538C0.217707 79.929 0.166231 79.8904 0.123415 79.8406C0.0805997 79.7908 0.0474344 79.7309 0.0261436 79.665C0.00485293 79.599 -0.00407094 79.5285 -2.94363e-05 79.4582V0.526168C-0.00407094 0.455877 0.00485293 0.385389 0.0261436 0.31944C0.0474344 0.25349 0.0805997 0.193603 0.123415 0.143789C0.166231 0.0939747 0.217707 0.0553852 0.27439 0.0306143C0.331074 0.00584333 0.391655 -0.00453856 0.452071 0.000163575H68.3493C68.4692 0.000163575 68.5842 0.0555847 68.669 0.154229C68.7537 0.252873 68.8014 0.386664 68.8014 0.526168V79.4582Z" fill="#00315D"/>
<path d="M34.4285 27.097V15.3975L16.9336 27.1927V64.5388H25.5646V54.8157L34.4285 48.8225V37.1229L25.5646 43.1321V33.0903L34.4285 27.097Z" fill="white"/>
<path d="M34.4277 27.097V15.3975L51.9089 27.1927V64.5388H43.2368V54.8157L34.4277 48.8225V37.1229L43.2368 43.1321V33.0903L34.4277 27.097Z" fill="#00A0DC"/>
</g>
<defs>
<clipPath id="clip0_115_1110">
<rect width="274" height="80" fill="white"/>
</clipPath>
</defs>
</svg>
