<svg width="261" height="151" viewBox="0 0 261 151" fill="none" xmlns="http://www.w3.org/2000/svg">
<path fill-rule="evenodd" clip-rule="evenodd" d="M35.6522 87.2528C38.2622 87.2528 40.3241 82.0056 40.4415 75.4245C38.8886 75.5629 37.2834 75.6384 35.6391 75.6384C33.9948 75.6384 32.3897 75.5629 30.8367 75.4245C30.9411 82.0056 33.0422 87.2528 35.6261 87.2528H35.6522ZM35.6522 70.4163C37.179 70.4163 38.6798 70.3534 40.1022 70.2276C39.3845 65.6724 37.6619 62.4762 35.6522 62.4762C33.6425 62.4762 31.9068 65.6724 31.2021 70.2276C32.6246 70.3534 34.1123 70.4163 35.6522 70.4163ZM37.7271 93.6074C52.0821 92.8776 63.4356 84.5977 63.4356 74.4933C63.3813 71.0444 62.111 67.716 59.8338 65.0558C59.6511 69.7242 52.8912 73.6628 43.5213 75.1225V76.0537C43.5213 84.5097 41.0418 91.6318 37.6749 93.6703H37.7402L37.7271 93.6074ZM35.6522 57.7197C39.0713 57.7197 41.9814 62.7531 43.0646 69.8878C49.7331 68.8686 54.392 66.5281 54.392 63.8101C54.392 60.1483 46.0008 57.1912 35.6522 57.1912C25.3035 57.1912 16.9646 60.1483 16.9646 63.8101C16.9646 66.5281 21.6234 68.8434 28.2789 69.8878C29.349 62.8034 32.2722 57.7197 35.6913 57.7197H35.6522ZM3.53613 75.2357C3.53613 63.9107 17.8911 54.7752 35.6522 54.7752C53.4132 54.7752 67.7552 63.9359 67.7552 75.2357C67.7552 86.5356 53.4002 95.6963 35.6522 95.6963C17.9042 95.6963 3.53613 86.5356 3.53613 75.2357ZM33.6425 93.62C30.2756 91.5563 27.7961 84.4342 27.7961 76.0033V75.0722C18.4262 73.6251 11.6532 69.6865 11.4836 65.0055C9.17645 67.6723 7.88681 71.0209 7.82958 74.4933C7.82958 84.56 19.17 92.8776 33.5381 93.6074H33.6033L33.6425 93.62Z" fill="#EA1E26"/>
<path fill-rule="evenodd" clip-rule="evenodd" d="M183.366 85.1388C188.298 85.1388 192.292 80.7095 192.292 75.2357C192.292 69.762 188.298 65.3327 183.366 65.3327C178.433 65.3327 174.439 69.762 174.439 75.2357C174.439 80.7095 178.446 85.1388 183.366 85.1388ZM167.379 75.2357C167.426 72.1971 168.402 69.2394 170.187 66.7344C171.971 64.2295 174.484 62.2891 177.409 61.157C180.334 60.025 183.54 59.7519 186.626 60.372C189.711 60.9921 192.538 62.4778 194.75 64.6423C196.962 66.8068 198.462 69.5535 199.06 72.5373C199.658 75.5211 199.328 78.6088 198.111 81.4123C196.895 84.2157 194.846 86.6099 192.222 88.2939C189.599 89.9779 186.517 90.8765 183.366 90.8768C181.251 90.862 179.16 90.4457 177.212 89.6516C175.264 88.8575 173.497 87.7013 172.013 86.2489C170.528 84.7964 169.355 83.0763 168.56 81.1867C167.765 79.297 167.364 77.2749 167.379 75.2357Z" fill="#EA1E26"/>
<path fill-rule="evenodd" clip-rule="evenodd" d="M217.491 66.1128V90.1596H210.757V66.1128H210.783H201.361V60.6768H226.887V66.1128H217.517H217.491Z" fill="#EA1E26"/>
<path fill-rule="evenodd" clip-rule="evenodd" d="M241.216 78.5577H245.444L241.242 67.7612L237.027 78.5577H241.268H241.216ZM235.044 83.5282L232.434 90.147H224.604L237.04 60.6642H245.418L257.855 90.147H250.025L247.415 83.5282H235.07H235.044Z" fill="#EA1E26"/>
<path fill-rule="evenodd" clip-rule="evenodd" d="M93.3333 66.1128V90.1596H86.5995V66.1128H86.6125H77.1904V60.6768H102.729V66.1128H93.3463H93.3333Z" fill="#EA1E26"/>
<path fill-rule="evenodd" clip-rule="evenodd" d="M120.438 85.1388C125.371 85.1388 129.365 80.7095 129.365 75.2358C129.365 69.762 125.371 65.3327 120.438 65.3327C115.505 65.3327 111.512 69.762 111.512 75.2358C111.512 80.7095 115.505 85.1388 120.438 85.1388ZM104.4 75.2358C104.446 72.1992 105.422 69.2435 107.204 66.7397C108.986 64.2358 111.496 62.2953 114.417 61.1618C117.339 60.0283 120.543 59.7522 123.627 60.3682C126.711 60.9843 129.538 62.465 131.752 64.6245C133.967 66.784 135.47 69.5261 136.074 72.5066C136.678 75.4871 136.355 78.5732 135.147 81.3776C133.938 84.1819 131.898 86.5795 129.281 88.2695C126.664 89.9595 123.588 90.8666 120.438 90.8768C118.319 90.8703 116.221 90.4599 114.267 89.6694C112.312 88.8789 110.538 87.7237 109.048 86.2703C107.558 84.8169 106.38 83.0939 105.582 81.2002C104.785 79.3065 104.383 77.2796 104.4 75.2358Z" fill="#EA1E26"/>
<path fill-rule="evenodd" clip-rule="evenodd" d="M151.902 90.1596H155.321V79.0988V78.9604L167.066 60.6768H159.21L151.902 73.0714L144.607 60.6768H136.738L148.483 78.9604V79.0988V90.1596H151.902Z" fill="#EA1E26"/>
</svg>
